<svg width="124" height="123" viewBox="0 0 124 123" fill="none" xmlns="http://www.w3.org/2000/svg">
<g clip-path="url(#clip0_142_201)">
<rect x="0.711914" width="123" height="123" rx="61.5" fill="#E7E7E7"/>
<circle cx="23.7143" cy="23.7143" r="23.7143" transform="matrix(-1 0 0 1 85.2144 29)" stroke="#808080" stroke-width="7"/>
<path d="M20 105.926C20 104.235 21.0627 102.728 22.6547 102.159L50.4009 92.2496C57.5783 89.6863 65.4217 89.6863 72.5991 92.2496L100.345 102.159C101.937 102.728 103 104.235 103 105.926V130.444C103 131.661 101.922 132.596 100.717 132.424L65.3184 127.367C62.7856 127.005 60.2143 127.005 57.6816 127.367L22.2828 132.424C21.078 132.596 20 131.661 20 130.444V105.926Z" stroke="#808080" stroke-width="7"/>
</g>
<defs>
<clipPath id="clip0_142_201">
<rect x="0.711914" width="123" height="123" rx="61.5" fill="white"/>
</clipPath>
</defs>
</svg>
