<svg width="56" height="56" viewBox="0 0 56 56" fill="none" xmlns="http://www.w3.org/2000/svg">
<path d="M32.6625 53.0206L32.4652 54.5075L32.4652 54.5075L32.6625 53.0206ZM24.4383 53.0206L24.6355 54.5075L24.6355 54.5075L24.4383 53.0206ZM16.5975 43.1624L16.1253 41.7387L16.1253 41.7387L16.5975 43.1624ZM40.5033 43.1625L40.0311 44.5862L40.0311 44.5862L40.5033 43.1625ZM15.6111 54.1915L15.4139 52.7045L15.4139 52.7045L15.6111 54.1915ZM41.4896 54.1915L41.6869 52.7045L41.6869 52.7045L41.4896 54.1915ZM41.0892 43.3568L41.5614 41.933L41.5614 41.933L41.0892 43.3568ZM16.0115 43.3568L16.4837 44.7805L16.4837 44.7805L16.0115 43.3568ZM41.7484 33.8392C40.9199 33.8392 40.2484 34.5108 40.2484 35.3392C40.2484 36.1677 40.9199 36.8392 41.7484 36.8392V33.8392ZM41.7484 21.0003C40.9199 21.0003 40.2484 21.6719 40.2484 22.5003C40.2484 23.3288 40.9199 24.0003 41.7484 24.0003V21.0003ZM49.9974 50.0745L49.8001 51.5614L49.8001 51.5614L49.9974 50.0745ZM49.5173 48.4976C48.696 48.3887 47.942 48.9661 47.833 49.7874C47.7241 50.6086 48.3015 51.3626 49.1228 51.4716L49.5173 48.4976ZM51.5116 41.7864L51.0394 43.2101L51.0394 43.2101L51.5116 41.7864ZM47.5122 39.2276C46.6968 39.0815 45.9173 39.6242 45.7712 40.4396C45.6251 41.255 46.1677 42.0345 46.9832 42.1806L47.5122 39.2276ZM14.2526 36.8392C15.081 36.8392 15.7526 36.1677 15.7526 35.3392C15.7526 34.5108 15.081 33.8392 14.2526 33.8392V36.8392ZM14.2526 24.0003C15.081 24.0003 15.7526 23.3288 15.7526 22.5003C15.7526 21.6719 15.081 21.0003 14.2526 21.0003V24.0003ZM6.00361 50.0745L6.20086 51.5614L6.20087 51.5614L6.00361 50.0745ZM6.87823 51.4716C7.69946 51.3626 8.27689 50.6086 8.16795 49.7874C8.05901 48.9661 7.30496 48.3887 6.48372 48.4976L6.87823 51.4716ZM4.48941 41.7864L4.96157 43.2101L4.96157 43.2101L4.48941 41.7864ZM9.01783 42.1806C9.83328 42.0345 10.3759 41.255 10.2298 40.4396C10.0837 39.6242 9.30423 39.0815 8.48879 39.2276L9.01783 42.1806ZM27.5774 9.36364C27.5774 10.1921 28.249 10.8636 29.0774 10.8636C29.9059 10.8636 30.5774 10.1921 30.5774 9.36364H27.5774ZM30.5774 2C30.5774 1.17157 29.9059 0.5 29.0774 0.5C28.249 0.5 27.5774 1.17157 27.5774 2H30.5774ZM41.2609 13.2924C40.6514 13.8535 40.6121 14.8024 41.1731 15.4119C41.7342 16.0215 42.6831 16.0608 43.2926 15.4997L41.2609 13.2924ZM48.9495 10.2928C49.559 9.7318 49.5983 8.78287 49.0373 8.17334C48.4762 7.56381 47.5273 7.52451 46.9178 8.08555L48.9495 10.2928ZM14.8623 15.4997C15.4719 16.0607 16.4208 16.0214 16.9818 15.4119C17.5429 14.8024 17.5036 13.8535 16.894 13.2924L14.8623 15.4997ZM11.2372 8.08554C10.6277 7.5245 9.67872 7.5638 9.11768 8.17333C8.55664 8.78285 8.59594 9.73179 9.20547 10.2928L11.2372 8.08554ZM18.2517 26.9429C18.2517 32.3864 22.9692 36.6131 28.5504 36.6131V33.6131C24.4128 33.6131 21.2517 30.524 21.2517 26.9429H18.2517ZM28.5504 36.6131C34.1315 36.6131 38.849 32.3864 38.849 26.9429H35.849C35.849 30.524 32.6879 33.6131 28.5504 33.6131V36.6131ZM38.849 26.9429C38.849 21.4995 34.1315 17.2727 28.5504 17.2727V20.2727C32.6879 20.2727 35.849 23.3618 35.849 26.9429H38.849ZM28.5504 17.2727C22.9692 17.2727 18.2517 21.4995 18.2517 26.9429H21.2517C21.2517 23.3618 24.4128 20.2727 28.5504 20.2727V17.2727ZM42.4481 47.1237V52.2116H45.4481V47.1237H42.4481ZM14.6527 52.2116V47.1237H11.6527V52.2116H14.6527ZM16.4837 44.7805L17.0697 44.5862L16.1253 41.7387L15.5394 41.933L16.4837 44.7805ZM40.0311 44.5862L40.6171 44.7805L41.5614 41.933L40.9754 41.7387L40.0311 44.5862ZM41.6869 52.7045L32.8597 51.5336L32.4652 54.5075L41.2924 55.6785L41.6869 52.7045ZM24.241 51.5336L15.4139 52.7045L15.8084 55.6785L24.6355 54.5075L24.241 51.5336ZM32.8597 51.5336C30.0012 51.1544 27.0995 51.1544 24.241 51.5336L24.6355 54.5075C27.2322 54.1631 29.8686 54.1631 32.4652 54.5075L32.8597 51.5336ZM17.0697 44.5862C24.4926 42.1245 32.6081 42.1245 40.0311 44.5862L40.9754 41.7387C32.9393 39.0737 24.1614 39.0737 16.1253 41.7387L17.0697 44.5862ZM11.6527 52.2116C11.6527 54.459 13.7389 55.953 15.8084 55.6785L15.4139 52.7045C15.1781 52.7358 14.9736 52.6649 14.8362 52.5543C14.7011 52.4455 14.6527 52.3217 14.6527 52.2116H11.6527ZM42.4481 52.2116C42.4481 52.3217 42.3996 52.4455 42.2646 52.5543C42.1272 52.6649 41.9226 52.7358 41.6869 52.7045L41.2924 55.6785C43.3618 55.953 45.4481 54.459 45.4481 52.2116H42.4481ZM45.4481 47.1237C45.4481 44.7288 43.8326 42.6862 41.5614 41.933L40.6171 44.7805C41.7747 45.1645 42.4481 46.1378 42.4481 47.1237H45.4481ZM14.6527 47.1237C14.6527 46.1378 15.326 45.1645 16.4837 44.7805L15.5394 41.933C13.2682 42.6862 11.6527 44.7288 11.6527 47.1237H14.6527ZM41.7484 36.8392C46.2882 36.8392 50.1616 33.3963 50.1616 28.9198H47.1616C47.1616 31.534 44.8446 33.8392 41.7484 33.8392V36.8392ZM50.1616 28.9198C50.1616 24.4432 46.2882 21.0003 41.7484 21.0003V24.0003C44.8446 24.0003 47.1616 26.3056 47.1616 28.9198H50.1616ZM52.3467 44.8632V46.9744H55.3467V44.8632H52.3467ZM50.1946 48.5875L49.5173 48.4976L49.1228 51.4716L49.8001 51.5614L50.1946 48.5875ZM52.3467 46.9744C52.3467 47.8498 51.4544 48.7546 50.1946 48.5875L49.8001 51.5614C52.6037 51.9333 55.3467 49.9104 55.3467 46.9744H52.3467ZM55.3467 44.8632C55.3467 42.778 53.9408 41.0117 51.9838 40.3626L51.0394 43.2101C51.883 43.4899 52.3467 44.1869 52.3467 44.8632H55.3467ZM46.9832 42.1806C48.355 42.4264 49.7111 42.7696 51.0394 43.2101L51.9838 40.3626C50.5184 39.8767 49.0234 39.4984 47.5122 39.2276L46.9832 42.1806ZM14.2526 33.8392C11.1563 33.8392 8.83931 31.534 8.83931 28.9198H5.83931C5.83931 33.3963 9.71268 36.8392 14.2526 36.8392V33.8392ZM8.83931 28.9198C8.83931 26.3056 11.1563 24.0003 14.2526 24.0003V21.0003C9.71268 21.0003 5.83931 24.4432 5.83931 28.9198H8.83931ZM0.654297 44.8632V46.9744H3.6543V44.8632H0.654297ZM6.20087 51.5614L6.87823 51.4716L6.48372 48.4976L5.80636 48.5875L6.20087 51.5614ZM0.654297 46.9744C0.654297 49.9104 3.3973 51.9333 6.20086 51.5614L5.80636 48.5875C4.54665 48.7546 3.6543 47.8498 3.6543 46.9744H0.654297ZM3.6543 44.8632C3.6543 44.1869 4.11797 43.4899 4.96157 43.2101L4.01724 40.3626C2.06016 41.0117 0.654297 42.778 0.654297 44.8632H3.6543ZM8.48879 39.2276C6.97759 39.4984 5.48264 39.8767 4.01724 40.3626L4.96157 43.2101C6.28988 42.7696 7.64599 42.4264 9.01783 42.1806L8.48879 39.2276ZM30.5774 9.36364V2H27.5774V9.36364H30.5774ZM43.2926 15.4997L48.9495 10.2928L46.9178 8.08555L41.2609 13.2924L43.2926 15.4997ZM16.894 13.2924L11.2372 8.08554L9.20547 10.2928L14.8623 15.4997L16.894 13.2924Z" fill="#1E4391"/>
</svg>
