<svg width="37" height="35" viewBox="0 0 37 35" fill="none" xmlns="http://www.w3.org/2000/svg">
<path d="M2 14.9384C2 13.7142 2.56058 12.5574 3.52142 11.7989L14.7214 2.95677C16.1747 1.80948 18.2253 1.80948 19.6786 2.95677L30.8786 11.7989C31.8394 12.5574 32.4 13.7142 32.4 14.9384V29C32.4 31.2091 30.6091 33 28.4 33H23C22.4477 33 22 32.5523 22 32V25.4C22 24.2954 21.1046 23.4 20 23.4H14.4C13.2954 23.4 12.4 24.2954 12.4 25.4V32C12.4 32.5523 11.9523 33 11.4 33H6C3.79086 33 2 31.2091 2 29L2 14.9384Z" stroke="#555555" stroke-width="3"/>
</svg>
