<svg width="52" height="56" viewBox="0 0 52 56" fill="none" xmlns="http://www.w3.org/2000/svg">
<path d="M30.329 53.0206L30.1169 54.5055L30.329 53.0206ZM22.6923 53.0206L22.9044 54.5055L22.6923 53.0206ZM15.4115 43.1624L14.907 41.7498H14.907L15.4115 43.1624ZM37.6097 43.1625L37.1052 44.5751L37.1052 44.5751L37.6097 43.1625ZM14.4956 54.1915L14.2835 52.7066H14.2835L14.4956 54.1915ZM38.5257 54.1915L38.7378 52.7066L38.5257 54.1915ZM38.1539 43.3568L38.6584 41.9442L38.6584 41.9442L38.1539 43.3568ZM14.8674 43.3568L15.3719 44.7694H15.3719L14.8674 43.3568ZM38.7659 33.8392C37.9375 33.8392 37.2659 34.5108 37.2659 35.3392C37.2659 36.1677 37.9375 36.8392 38.7659 36.8392V33.8392ZM38.7659 21.0003C37.9375 21.0003 37.2659 21.6719 37.2659 22.5003C37.2659 23.3288 37.9375 24.0003 38.7659 24.0003V21.0003ZM46.4257 50.0745L46.2136 51.5594L46.4257 50.0745ZM46.0089 48.4997C45.1888 48.3825 44.429 48.9524 44.3118 49.7725C44.1947 50.5926 44.7645 51.3524 45.5846 51.4695L46.0089 48.4997ZM47.8318 41.7864L47.3273 43.199L47.8318 41.7864ZM44.1566 39.2313C43.3432 39.0743 42.5565 39.6065 42.3996 40.42C42.2427 41.2334 42.7748 42.02 43.5883 42.177L44.1566 39.2313ZM13.2341 36.8392C14.0625 36.8392 14.7341 36.1677 14.7341 35.3392C14.7341 34.5108 14.0625 33.8392 13.2341 33.8392V36.8392ZM13.2341 24.0003C14.0625 24.0003 14.7341 23.3288 14.7341 22.5003C14.7341 21.6719 14.0625 21.0003 13.2341 21.0003V24.0003ZM5.57437 50.0745L5.7865 51.5594H5.7865L5.57437 50.0745ZM6.41548 51.4695C7.23558 51.3524 7.80543 50.5926 7.68827 49.7725C7.57111 48.9524 6.81131 48.3825 5.99121 48.4997L6.41548 51.4695ZM4.16832 41.7864L4.67282 43.199L4.16832 41.7864ZM8.41182 42.177C9.22525 42.02 9.75743 41.2334 9.60049 40.42C9.44355 39.6065 8.65692 39.0743 7.84349 39.2313L8.41182 42.177ZM25.5001 9.36364C25.5001 10.1921 26.1716 10.8636 27.0001 10.8636C27.8285 10.8636 28.5001 10.1921 28.5001 9.36364H25.5001ZM28.5001 2C28.5001 1.17157 27.8285 0.5 27.0001 0.5C26.1716 0.5 25.5001 1.17157 25.5001 2H28.5001ZM38.2006 13.3308C37.6122 13.914 37.6081 14.8637 38.1913 15.4521C38.7745 16.0404 39.7242 16.0446 40.3126 15.4614L38.2006 13.3308ZM45.5654 10.2545C46.1537 9.67129 46.1579 8.72156 45.5747 8.1332C44.9915 7.54485 44.0417 7.54068 43.4534 8.12389L45.5654 10.2545ZM13.6876 15.4614C14.276 16.0446 15.2257 16.0404 15.8089 15.4521C16.3921 14.8637 16.388 13.914 15.7996 13.3308L13.6876 15.4614ZM10.5468 8.12388C9.95845 7.54067 9.00872 7.54484 8.42551 8.13319C7.8423 8.72154 7.84647 9.67128 8.43482 10.2545L10.5468 8.12388ZM16.8404 26.9429C16.8404 32.2836 21.1699 36.6131 26.5106 36.6131V33.6131C22.8268 33.6131 19.8404 30.6268 19.8404 26.9429H16.8404ZM26.5106 36.6131C31.8513 36.6131 36.1808 32.2836 36.1808 26.9429H33.1808C33.1808 30.6268 30.1945 33.6131 26.5106 33.6131V36.6131ZM36.1808 26.9429C36.1808 21.6022 31.8513 17.2727 26.5106 17.2727V20.2727C30.1945 20.2727 33.1808 23.2591 33.1808 26.9429H36.1808ZM26.5106 17.2727C21.1699 17.2727 16.8404 21.6022 16.8404 26.9429H19.8404C19.8404 23.2591 22.8268 20.2727 26.5106 20.2727V17.2727ZM39.3085 47.1237V52.2116H42.3085V47.1237H39.3085ZM13.7128 52.2116V47.1237H10.7128V52.2116H13.7128ZM15.3719 44.7694L15.9161 44.5751L14.907 41.7498L14.3629 41.9442L15.3719 44.7694ZM37.1052 44.5751L37.6494 44.7694L38.6584 41.9442L38.1142 41.7498L37.1052 44.5751ZM38.7378 52.7066L30.5412 51.5356L30.1169 54.5055L38.3135 55.6764L38.7378 52.7066ZM22.4801 51.5356L14.2835 52.7066L14.7078 55.6764L22.9044 54.5055L22.4801 51.5356ZM30.5412 51.5356C27.8677 51.1537 25.1536 51.1537 22.4801 51.5356L22.9044 54.5055C25.2964 54.1638 27.7249 54.1638 30.1169 54.5055L30.5412 51.5356ZM15.9161 44.5751C22.7672 42.1282 30.2541 42.1282 37.1052 44.5751L38.1143 41.7498C30.6106 39.07 22.4107 39.07 14.907 41.7498L15.9161 44.5751ZM10.7128 52.2116C10.7128 54.3415 12.5992 55.9776 14.7078 55.6764L14.2835 52.7066C13.9823 52.7496 13.7128 52.5159 13.7128 52.2116H10.7128ZM39.3085 52.2116C39.3085 52.5159 39.039 52.7496 38.7378 52.7066L38.3135 55.6764C40.4221 55.9776 42.3085 54.3415 42.3085 52.2116H39.3085ZM42.3085 47.1237C42.3085 44.7994 40.8473 42.7259 38.6584 41.9442L37.6494 44.7694C38.6443 45.1247 39.3085 46.0672 39.3085 47.1237H42.3085ZM13.7128 47.1237C13.7128 46.0672 14.377 45.1247 15.3719 44.7694L14.3629 41.9442C12.174 42.7259 10.7128 44.7994 10.7128 47.1237H13.7128ZM38.7659 36.8392C43.1397 36.8392 46.6854 33.2936 46.6854 28.9198H43.6854C43.6854 31.6367 41.4829 33.8392 38.7659 33.8392V36.8392ZM46.6854 28.9198C46.6854 24.546 43.1397 21.0003 38.7659 21.0003V24.0003C41.4829 24.0003 43.6854 26.2028 43.6854 28.9198H46.6854ZM48.5001 44.8632V46.9744H51.5001V44.8632H48.5001ZM46.6379 48.5895L46.0089 48.4997L45.5846 51.4695L46.2136 51.5594L46.6379 48.5895ZM48.5001 46.9744C48.5001 47.9673 47.6207 48.7299 46.6379 48.5895L46.2136 51.5594C49.0038 51.958 51.5001 49.7929 51.5001 46.9744H48.5001ZM51.5001 44.8632C51.5001 42.8485 50.2336 41.0514 48.3363 40.3738L47.3273 43.199C48.0306 43.4502 48.5001 44.1164 48.5001 44.8632H51.5001ZM43.5883 42.177C44.8523 42.4208 46.1023 42.7615 47.3273 43.199L48.3363 40.3738C46.9671 39.8848 45.5697 39.5039 44.1566 39.2313L43.5883 42.177ZM13.2341 33.8392C10.5172 33.8392 8.31466 31.6367 8.31466 28.9198H5.31466C5.31466 33.2936 8.86032 36.8392 13.2341 36.8392V33.8392ZM8.31466 28.9198C8.31466 26.2028 10.5172 24.0003 13.2341 24.0003V21.0003C8.86032 21.0003 5.31466 24.546 5.31466 28.9198H8.31466ZM0.5 44.8632V46.9744H3.5V44.8632H0.5ZM5.7865 51.5594L6.41548 51.4695L5.99121 48.4997L5.36223 48.5895L5.7865 51.5594ZM0.5 46.9744C0.5 49.7929 2.99633 51.958 5.7865 51.5594L5.36223 48.5895C4.37936 48.7299 3.5 47.9673 3.5 46.9744H0.5ZM3.5 44.8632C3.5 44.1164 3.96949 43.4502 4.67282 43.199L3.66381 40.3738C1.7665 41.0514 0.5 42.8485 0.5 44.8632H3.5ZM7.84349 39.2313C6.43041 39.5039 5.03303 39.8848 3.66381 40.3738L4.67282 43.199C5.89776 42.7615 7.14779 42.4208 8.41182 42.177L7.84349 39.2313ZM28.5001 9.36364V2H25.5001V9.36364H28.5001ZM40.3126 15.4614L45.5654 10.2545L43.4534 8.12389L38.2006 13.3308L40.3126 15.4614ZM15.7996 13.3308L10.5468 8.12388L8.43482 10.2545L13.6876 15.4614L15.7996 13.3308Z" fill="url(#paint0_linear_57_2883)"/>
<defs>
<linearGradient id="paint0_linear_57_2883" x1="2" y1="28.106" x2="50.0001" y2="28.106" gradientUnits="userSpaceOnUse">
<stop stop-color="#00E4D7"/>
<stop offset="0.485" stop-color="#0380F7"/>
<stop offset="0.975" stop-color="#0500FF"/>
</linearGradient>
</defs>
</svg>
