<svg width="35" height="36" viewBox="0 0 35 36" fill="none" xmlns="http://www.w3.org/2000/svg">
<path fill-rule="evenodd" clip-rule="evenodd" d="M29.2605 2.76544C27.717 1.22841 25.2155 1.22935 23.6732 2.76755L11.7445 14.6666C10.7904 15.6182 10.2295 16.8919 10.1727 18.2359L10.0029 22.2562C9.9256 24.0868 11.3939 25.613 13.2324 25.6131L17.1878 25.6133C18.64 25.6133 20.0307 25.0292 21.0447 23.9931L32.8774 11.8661C34.388 10.3228 34.3721 7.85572 32.8418 6.3318L29.2605 2.76544ZM25.1976 4.28557C25.8986 3.58639 27.0357 3.58596 27.7372 4.28461L31.3185 7.85097C32.0141 8.54366 32.0214 9.66505 31.3347 10.3666L28.9583 12.7947L22.8074 6.66941L25.1976 4.28557ZM21.2841 8.18858L13.2689 16.1847C12.6964 16.7556 12.3599 17.5198 12.3258 18.3262L12.156 22.3465C12.1302 22.9567 12.6197 23.4655 13.2325 23.4655L17.1879 23.4657C18.0592 23.4657 18.8937 23.1152 19.502 22.4936L27.4535 14.3322L21.2841 8.18858Z" fill="#555555" stroke="#555555" stroke-linecap="round" stroke-linejoin="round"/>
<path d="M30.8 19.2135V28.6135C30.8 31.3749 28.5614 33.6135 25.8 33.6135H7C4.23858 33.6135 2 31.3749 2 28.6135V9.81348C2 7.05205 4.23858 4.81348 7 4.81348H16.4" stroke="#555555" stroke-width="3" stroke-linecap="round"/>
</svg>
