<svg width="20" height="19" viewBox="0 0 20 19" fill="none" xmlns="http://www.w3.org/2000/svg">
<path d="M17.5833 19L10.9101 12.35C10.3805 12.7722 9.77143 13.1065 9.08293 13.3528C8.39443 13.5991 7.66179 13.7222 6.88502 13.7222C4.96074 13.7222 3.33235 13.0579 1.99983 11.7293C0.667318 10.4007 0.000706716 8.778 5.60441e-07 6.86111C-0.000705595 4.94422 0.665905 3.32148 1.99983 1.99289C3.33376 0.664296 4.96216 0 6.88502 0C8.80788 0 10.4366 0.664296 11.7713 1.99289C13.1059 3.32148 13.7722 4.94422 13.77 6.86111C13.77 7.63519 13.6465 8.36528 13.3993 9.05139C13.1521 9.7375 12.8167 10.3444 12.393 10.8722L19.0662 17.5222L17.5833 19ZM6.88502 11.6111C8.20906 11.6111 9.33467 11.1495 10.2619 10.2262C11.189 9.30296 11.6523 8.18126 11.6516 6.86111C11.6509 5.54096 11.1876 4.41961 10.2619 3.49706C9.33608 2.5745 8.21047 2.11252 6.88502 2.11111C5.55956 2.1097 4.4343 2.57169 3.50924 3.49706C2.58418 4.42243 2.12059 5.54378 2.11847 6.86111C2.11635 8.17844 2.57994 9.30015 3.50924 10.2262C4.43854 11.1523 5.5638 11.6139 6.88502 11.6111Z" fill="#366AF3"/>
</svg>
