<svg width="124" height="123" viewBox="0 0 124 123" fill="none" xmlns="http://www.w3.org/2000/svg">
<g clip-path="url(#clip0_735_385)">
<rect x="0.154785" width="123" height="123" rx="61.5" fill="#F6F6F6"/>
<circle cx="23.7143" cy="23.7143" r="23.7143" transform="matrix(-1 0 0 1 84.6567 29)" stroke="#555555" stroke-width="7"/>
<path d="M19.4424 105.926C19.4424 104.236 20.5051 102.728 22.097 102.159L49.8433 92.2501C57.0207 89.6867 64.8641 89.6867 72.0415 92.2501L99.7877 102.159C101.38 102.728 102.442 104.236 102.442 105.926V130.444C102.442 131.662 101.364 132.596 100.16 132.424L64.7608 127.367C62.228 127.006 59.6567 127.006 57.124 127.367L21.7252 132.424C20.5204 132.596 19.4424 131.662 19.4424 130.444V105.926Z" stroke="#555555" stroke-width="7"/>
</g>
<defs>
<clipPath id="clip0_735_385">
<rect x="0.154785" width="123" height="123" rx="61.5" fill="white"/>
</clipPath>
</defs>
</svg>
